<svg width="247" height="247" viewBox="0 0 247 247" fill="none" xmlns="http://www.w3.org/2000/svg">
<path d="M227.104 160.584L225.681 160.085L226.257 158.442L227.68 158.941L227.104 160.584Z" fill="#FAFAFA"/>
<path d="M236.881 147.604L236.521 149.053L229.044 150.074L229.053 148.824L236.881 147.604ZM235.085 154.833L226.213 148.118L226.569 146.683L229.963 149.473L235.441 153.399L235.085 154.833Z" fill="#FAFAFA"/>
<path d="M238.922 134.356L238.745 135.75L231.501 134.832L231.677 133.439L238.922 134.356ZM238.542 138.527C238.49 138.933 238.386 139.294 238.228 139.608C238.07 139.922 237.86 140.181 237.599 140.384C237.347 140.588 237.043 140.731 236.689 140.814C236.343 140.908 235.956 140.928 235.531 140.874L230.812 140.277L230.987 138.897L235.4 139.456C235.971 139.529 236.415 139.442 236.731 139.197C237.056 138.963 237.254 138.565 237.325 138.004C237.38 137.568 237.328 137.158 237.17 136.775C237.012 136.391 236.779 136.061 236.469 135.786C236.168 135.522 235.813 135.339 235.403 135.238L236.203 135.325C236.584 135.422 236.929 135.569 237.239 135.766C237.547 135.972 237.807 136.211 238.018 136.484C238.238 136.767 238.39 137.082 238.474 137.427C238.568 137.773 238.591 138.139 238.542 138.527Z" fill="#FAFAFA"/>
<path d="M231.957 122.973C231.959 122.349 232.122 121.778 232.446 121.263C232.769 120.747 233.215 120.338 233.781 120.038C234.358 119.737 235.017 119.588 235.758 119.591C236.5 119.593 237.153 119.747 237.718 120.051C238.292 120.365 238.74 120.791 239.06 121.329C239.39 121.867 239.553 122.467 239.551 123.131C239.549 123.862 239.376 124.428 239.033 124.826C238.69 125.235 238.231 125.516 237.655 125.67C237.079 125.834 236.439 125.915 235.737 125.913C235.347 125.911 234.932 125.861 234.494 125.762C234.055 125.663 233.641 125.506 233.251 125.29C232.862 125.074 232.546 124.775 232.303 124.394C232.07 124.012 231.955 123.539 231.957 122.973ZM233.17 123.372C233.168 123.889 233.279 124.324 233.502 124.676C233.735 125.038 234.046 125.307 234.436 125.484C234.826 125.661 235.259 125.75 235.738 125.752C236.255 125.753 236.709 125.662 237.099 125.478C237.49 125.304 237.794 125.037 238.009 124.677C238.225 124.326 238.334 123.897 238.336 123.39C238.338 122.629 238.096 122.038 237.61 121.617C237.124 121.205 236.505 120.998 235.754 120.996C235.246 120.994 234.797 121.095 234.406 121.298C234.025 121.502 233.722 121.779 233.496 122.129C233.28 122.49 233.172 122.904 233.17 123.372ZM239.396 125.764L239.391 127.169L232.089 127.144L232.093 125.856C232.093 125.856 232.181 125.847 232.357 125.828C232.542 125.809 232.762 125.79 233.016 125.772C233.269 125.753 233.494 125.744 233.689 125.745L239.396 125.764Z" fill="#FAFAFA"/>
<path d="M237.312 100.396L237.514 101.786L230.288 102.835L230.086 101.445L237.312 100.396ZM238.058 104.517C238.117 104.922 238.112 105.297 238.044 105.642C237.975 105.988 237.842 106.293 237.644 106.558C237.456 106.822 237.202 107.041 236.882 107.216C236.573 107.399 236.206 107.521 235.782 107.583L231.075 108.266L230.876 106.89L235.278 106.251C235.848 106.168 236.252 105.967 236.492 105.646C236.742 105.334 236.827 104.897 236.745 104.337C236.682 103.903 236.524 103.522 236.269 103.194C236.015 102.866 235.701 102.611 235.33 102.428C234.97 102.254 234.578 102.173 234.156 102.185L234.95 102.055C235.344 102.047 235.716 102.096 236.066 102.203C236.418 102.32 236.733 102.481 237.009 102.687C237.296 102.902 237.527 103.164 237.7 103.474C237.882 103.783 238.002 104.13 238.058 104.517ZM238.826 109.817C238.885 110.223 238.881 110.598 238.812 110.943C238.744 111.288 238.611 111.593 238.413 111.859C238.224 112.123 237.97 112.342 237.651 112.516C237.342 112.699 236.975 112.821 236.55 112.883L231.844 113.566L231.644 112.191L236.047 111.551C236.616 111.469 237.021 111.267 237.26 110.946C237.511 110.634 237.595 110.198 237.514 109.638C237.451 109.203 237.292 108.822 237.038 108.495C236.783 108.167 236.47 107.911 236.099 107.729C235.738 107.554 235.347 107.473 234.925 107.485L235.734 107.353C236.127 107.345 236.494 107.395 236.835 107.504C237.187 107.62 237.502 107.786 237.78 108.002C238.067 108.217 238.297 108.479 238.47 108.789C238.653 109.098 238.772 109.441 238.826 109.817Z" fill="#FAFAFA"/>
<path d="M234.631 90.184L235.01 91.5366L227.98 93.5105L227.6 92.1579L234.631 90.184ZM234.48 94.2541C234.343 93.7657 234.114 93.3793 233.791 93.095C233.47 92.8202 233.117 92.6255 232.73 92.5112C232.346 92.4062 231.995 92.3631 231.676 92.3817L232.475 92.1421C232.571 92.1251 232.723 92.1078 232.931 92.0899C233.151 92.0789 233.404 92.0941 233.689 92.1357C233.974 92.1772 234.256 92.2602 234.534 92.3848C234.821 92.5067 235.08 92.6875 235.309 92.9271C235.538 93.1667 235.708 93.4838 235.819 93.8783L234.48 94.2541Z" fill="#FAFAFA"/>
<path d="M227.505 84.3641L227.995 85.6024C227.522 85.7059 227.055 85.6915 226.593 85.5594C226.132 85.4273 225.709 85.1803 225.325 84.8184C224.94 84.4565 224.63 83.9762 224.393 83.3774C224.113 82.6698 224.013 81.98 224.094 81.3081C224.174 80.6362 224.415 80.0373 224.815 79.5115C225.216 78.9857 225.765 78.5845 226.463 78.3079C227.171 78.0277 227.849 77.9377 228.497 78.0379C229.154 78.1344 229.74 78.3956 230.255 78.8214C230.769 79.2472 231.165 79.8093 231.441 80.5079C231.732 81.2427 231.83 81.9171 231.738 82.531C231.645 83.1449 231.359 83.6829 230.881 84.145C230.415 84.6127 229.752 84.9908 228.89 85.2795L226.689 79.7138C226.299 79.9208 225.984 80.1869 225.746 80.5122C225.511 80.8466 225.369 81.2175 225.321 81.625C225.275 82.0416 225.341 82.4721 225.517 82.9166C225.714 83.4156 225.992 83.788 226.352 84.0339C226.711 84.2798 227.096 84.3898 227.505 84.3641ZM230.331 80.9633C230.097 80.3736 229.745 79.9466 229.273 79.6822C228.81 79.4142 228.295 79.3191 227.728 79.3968L229.381 83.5744C229.919 83.319 230.262 82.9524 230.409 82.4746C230.565 81.9932 230.539 81.4894 230.331 80.9633Z" fill="#FAFAFA"/>
<path d="M218.083 70.0545C217.717 69.3986 217.484 68.7518 217.385 68.1142C217.291 67.4851 217.323 66.8808 217.48 66.3013C217.637 65.7219 217.92 65.1891 218.33 64.7029C218.749 64.2119 219.278 63.7879 219.917 63.4311C220.572 63.0646 221.224 62.8404 221.871 62.7583C222.526 62.6715 223.155 62.717 223.757 62.8947C224.367 63.0677 224.924 63.3654 225.428 63.7879C225.932 64.2103 226.365 64.7453 226.726 65.3927C227.13 66.1168 227.361 66.8205 227.418 67.5037C227.48 68.1954 227.378 68.8335 227.112 69.4179C226.855 69.9976 226.436 70.4886 225.856 70.8908L225.236 69.7791C225.566 69.4495 225.803 69.0826 225.946 68.6785C226.089 68.2745 226.135 67.8464 226.084 67.3945C226.033 66.9425 225.876 66.4823 225.615 66.0137C225.258 65.3748 224.809 64.8996 224.266 64.5881C223.732 64.2718 223.144 64.1197 222.503 64.1316C221.87 64.1388 221.239 64.3184 220.608 64.6705C219.987 65.0179 219.506 65.4375 219.166 65.9292C218.839 66.4247 218.67 66.972 218.658 67.571C218.659 68.1737 218.84 68.7989 219.201 69.4463C219.482 69.9489 219.812 70.34 220.192 70.6197C220.584 70.9031 221.005 71.076 221.453 71.1385C221.915 71.2047 222.397 71.1586 222.901 71.0001L223.334 71.5961C222.164 72.0822 221.125 72.1823 220.217 71.8963C219.317 71.6055 218.606 70.9916 218.083 70.0545ZM219.971 73.1067C220.243 72.9544 220.559 72.7892 220.918 72.6111C221.29 72.4368 221.661 72.2625 222.033 72.0882C222.419 71.9177 222.763 71.7643 223.067 71.628L221.334 68.5229L222.33 67.9662L224.591 72.0169L220.605 74.2439L219.971 73.1067Z" fill="#FAFAFA"/>
<path d="M208.839 44.5399L209.758 45.603L204.234 50.3796L203.316 49.3166L208.839 44.5399ZM211.686 47.6113C211.954 47.9213 212.152 48.2402 212.28 48.5678C212.408 48.8953 212.46 49.2243 212.436 49.5546C212.42 49.8786 212.324 50.2003 212.148 50.5196C211.987 50.8399 211.744 51.1405 211.419 51.4213L207.822 54.5324L206.913 53.4803L210.278 50.5703C210.713 50.1938 210.945 49.8059 210.974 49.4068C211.017 49.0086 210.854 48.5954 210.484 48.1672C210.197 47.835 209.858 47.5993 209.467 47.4602C209.076 47.3211 208.675 47.2746 208.263 47.3208C207.866 47.3679 207.492 47.5103 207.143 47.7478L207.743 47.2102C208.07 46.9919 208.41 46.8332 208.762 46.7344C209.122 46.6429 209.473 46.6097 209.817 46.6347C210.175 46.6607 210.51 46.7578 210.823 46.9258C211.143 47.0875 211.431 47.316 211.686 47.6113Z" fill="#FAFAFA"/>
<path d="M206.06 37.4382L205.02 38.5297L203.76 37.328L204.799 36.2365L206.06 37.4382ZM202.847 38.5406L203.853 39.5L198.817 44.7877L197.811 43.8284L202.847 38.5406Z" fill="#FAFAFA"/>
<path d="M184.64 31.8554C184.139 31.5158 183.748 31.1025 183.465 30.6158C183.182 30.129 183.047 29.6069 183.059 29.0494C183.08 28.4975 183.276 27.9469 183.649 27.3978C184.015 26.8568 184.451 26.4747 184.956 26.2515C185.467 26.0202 185.999 25.9392 186.553 26.0087C187.12 26.0756 187.662 26.2843 188.179 26.635C188.332 26.7391 188.47 26.8498 188.59 26.9672C188.717 27.0765 188.831 27.1951 188.932 27.3232L191.572 29.1147L190.833 30.2048C190.47 29.9583 190.143 29.6485 189.854 29.2753C189.573 28.9076 189.342 28.562 189.161 28.2385L189.165 28.1532C189.341 28.4849 189.459 28.8242 189.518 29.1711C189.583 29.5099 189.581 29.8441 189.51 30.1738C189.454 30.5008 189.319 30.8218 189.105 31.1367C188.744 31.6696 188.311 32.0477 187.806 32.271C187.309 32.4997 186.782 32.5725 186.225 32.4895C185.677 32.412 185.148 32.2006 184.64 31.8554ZM184.193 36.5043L184.382 36.2257C184.661 35.8139 184.748 35.4425 184.642 35.1114C184.537 34.7803 184.266 34.4669 183.83 34.171L182.413 33.2095C182.115 33.0068 181.877 32.81 181.7 32.6191C181.523 32.4282 181.399 32.2377 181.327 32.0477C181.25 31.8657 181.226 31.6842 181.254 31.5031C181.277 31.33 181.344 31.1628 181.453 31.0013C181.667 30.6864 181.925 30.5139 182.228 30.4839C182.531 30.4539 182.846 30.52 183.172 30.6824C183.504 30.8367 183.809 31.0381 184.088 31.2866L184.64 31.8554C184.163 31.5674 183.782 31.3735 183.496 31.2737C183.21 31.1739 182.996 31.229 182.854 31.439C182.771 31.5601 182.754 31.6899 182.802 31.8283C182.849 31.9667 182.962 32.0962 183.14 32.2167L184.617 33.2193C185.077 33.5316 185.446 33.8648 185.725 34.219C186.006 34.5866 186.154 34.9762 186.17 35.3877C186.188 35.8128 186.033 36.2676 185.705 36.7521L185.343 37.285L184.193 36.5043ZM185.305 30.8743C185.596 31.0716 185.899 31.1891 186.215 31.2268C186.545 31.262 186.862 31.2118 187.166 31.0762C187.475 30.9326 187.745 30.6912 187.975 30.3521C188.21 30.0049 188.338 29.6608 188.357 29.3199C188.389 28.9765 188.325 28.662 188.165 28.3765C188.011 28.0829 187.788 27.8375 187.497 27.6403C187.207 27.4431 186.893 27.3241 186.555 27.2835C186.231 27.2403 185.914 27.2904 185.604 27.4341C185.295 27.5777 185.019 27.8272 184.779 28.1825C184.549 28.5216 184.424 28.8616 184.405 29.2025C184.392 29.5353 184.462 29.8485 184.617 30.142C184.777 30.4275 185.006 30.6716 185.305 30.8743Z" fill="#FAFAFA"/>
<path d="M173.361 18.2675L174.61 18.9116L171.265 25.4026L170.016 24.7585L173.361 18.2675ZM177.148 20.0563C177.512 20.2442 177.814 20.4662 178.056 20.7223C178.297 20.9785 178.468 21.2643 178.569 21.5798C178.674 21.8866 178.705 22.2208 178.661 22.5825C178.63 22.94 178.517 23.3095 178.32 23.6911L176.142 27.9187L174.906 27.2813L176.944 23.3268C177.208 22.8152 177.279 22.3687 177.157 21.9875C177.048 21.6021 176.742 21.2797 176.239 21.0203C175.849 20.819 175.447 20.7267 175.032 20.7433C174.618 20.7599 174.228 20.8663 173.863 21.0624C173.512 21.2544 173.219 21.5257 172.983 21.8762L173.339 21.154C173.561 20.8295 173.817 20.5556 174.108 20.3324C174.407 20.1135 174.721 19.9517 175.05 19.8467C175.391 19.7375 175.739 19.7026 176.091 19.7419C176.449 19.7726 176.801 19.8774 177.148 20.0563Z" fill="#FAFAFA"/>
<path d="M168.136 12.7153L167.578 14.1155L165.961 13.4703L166.518 12.0701L168.136 12.7153ZM165.566 14.9356L166.857 15.4507L164.154 22.2343L162.863 21.7192L165.566 14.9356Z" fill="#FAFAFA"/>
<path d="M154.479 17.6977L154.044 17.5693L158.077 12.275L159.536 12.7058L154.594 18.8607L153.331 18.4878L152.547 10.6427L154.021 11.0777L154.479 17.6977Z" fill="#FAFAFA"/>
<path d="M147.059 6.32949L146.768 7.80841L145.059 7.47186L145.35 5.99294L147.059 6.32949ZM144.94 8.98472L146.304 9.2534L144.895 16.4183L143.531 16.1496L144.94 8.98472Z" fill="#FAFAFA"/>
<path d="M132.77 5.11068L131.972 13.3108L137.536 13.8527L137.414 15.1053L130.452 14.4271L131.372 4.97447L132.77 5.11068Z" fill="#FAFAFA"/>
<path d="M116.268 12.9421L116.374 14.4457L114.637 14.5684L114.531 13.0649L116.268 12.9421Z" fill="#FAFAFA"/>
<path d="M105.433 5.33615L106.824 5.13503L108.287 15.2589L106.896 15.46L105.433 5.33615Z" fill="#FAFAFA"/>
<path d="M98.455 6.51204L98.7781 7.98429L97.0772 8.35796L96.7541 6.88572L98.455 6.51204ZM97.5718 9.79252L98.9296 9.49421L100.495 16.6267L99.137 16.925L97.5718 9.79252Z" fill="#FAFAFA"/>
<path d="M91.1369 12.653L88.093 19.2462L87.774 18.8718L92.6813 17.306L93.0457 18.4493L87.1206 20.3398L86.7563 19.1965L89.842 12.5899L90.161 12.9643L85.2676 14.5257L84.9032 13.3824L90.7725 11.5097L91.1369 12.653Z" fill="#FAFAFA"/>
<path d="M77.595 24.4074C77.0267 24.6661 76.4407 24.7561 75.8368 24.6773C75.233 24.5985 74.6763 24.3642 74.1668 23.9744C73.6533 23.5758 73.243 23.039 72.9361 22.3641C72.6291 21.6892 72.4962 21.0315 72.5372 20.3911C72.583 19.7378 72.7834 19.1535 73.1385 18.6381C73.4895 18.1138 73.9669 17.7142 74.5707 17.4393C75.2366 17.1361 75.8223 17.0571 76.3276 17.2021C76.8419 17.3432 77.2892 17.6433 77.6696 18.1026C78.0588 18.5578 78.3988 19.1052 78.6896 19.7446C78.8512 20.0998 78.9784 20.4974 79.0714 20.9375C79.1643 21.3775 79.1939 21.8196 79.1601 22.2638C79.1263 22.7079 78.9868 23.1199 78.7415 23.4995C78.4921 23.8703 78.11 24.1729 77.595 24.4074ZM77.4518 23.1381C77.9223 22.9238 78.271 22.6418 78.4978 22.292C78.7293 21.9293 78.8443 21.5339 78.8425 21.106C78.8408 20.678 78.741 20.2464 78.5431 19.8113C78.329 19.3406 78.0569 18.966 77.7266 18.6876C77.4053 18.4052 77.0359 18.241 76.6185 18.1952C76.21 18.1454 75.7749 18.2256 75.3132 18.4358C74.6207 18.7511 74.1845 19.2177 74.0046 19.8355C73.8337 20.4494 73.9037 21.0982 74.2146 21.782C74.4247 22.2438 74.7037 22.6098 75.0517 22.8802C75.3956 23.1416 75.7739 23.3017 76.1864 23.3604C76.6038 23.4062 77.0256 23.3321 77.4518 23.1381ZM77.0286 16.481L78.3071 15.8989L81.3301 22.546L80.1581 23.0796C80.1581 23.0796 80.1129 23.0038 80.0224 22.852C79.9279 22.6913 79.8193 22.4996 79.6966 22.2768C79.5738 22.054 79.472 21.8538 79.3912 21.6762L77.0286 16.481Z" fill="#FAFAFA"/>
<path d="M62.7222 23.9039L63.9321 23.19L67.6399 29.4809L66.43 30.1948L62.7222 23.9039ZM66.6937 23.0048C66.2567 23.2626 65.9423 23.5841 65.7503 23.9692C65.5667 24.3494 65.4692 24.7411 65.4577 25.1444C65.4546 25.5426 65.5029 25.8936 65.6026 26.1973L65.1665 25.4861C65.1254 25.3971 65.0696 25.2544 64.9992 25.0581C64.9322 24.8484 64.8823 24.6004 64.8493 24.3139C64.8164 24.0275 64.8245 23.7339 64.8737 23.433C64.9179 23.1237 65.0264 22.8275 65.1992 22.5443C65.372 22.2611 65.6349 22.0154 65.9878 21.8071L66.6937 23.0048Z" fill="#FAFAFA"/>
<path d="M54.9695 38.1859L49.2843 30.5782L52.7059 28.0185C53.5652 27.3756 54.3606 27.0547 55.0921 27.0557C55.8236 27.0568 56.4346 27.3855 56.9251 28.0419C57.2288 28.4483 57.3843 28.8437 57.3915 29.2282C57.4065 29.6069 57.3006 29.9785 57.0737 30.3432C56.841 30.7 56.5245 31.0587 56.124 31.4192L56.0862 31.3196C56.4181 31.0956 56.7451 30.9058 57.0672 30.7501C57.3972 30.5886 57.7143 30.4914 58.0186 30.4587C58.3308 30.4201 58.6311 30.4634 58.9197 30.5887C59.216 30.7082 59.4955 30.9438 59.7583 31.2954C60.1029 31.7565 60.2826 32.2252 60.2974 32.7014C60.3065 33.1698 60.1741 33.6283 59.9003 34.0768C59.6343 34.5194 59.2562 34.9424 58.766 35.3457L54.9695 38.1859ZM55.341 36.3363L57.8017 34.4954C58.3173 34.1097 58.6495 33.7149 58.7984 33.3111C58.9473 32.9074 58.8699 32.5023 58.5662 32.0959C58.3326 31.7833 58.0676 31.6161 57.7711 31.5942C57.4746 31.5723 57.1644 31.646 56.8403 31.8154C56.524 31.9789 56.2136 32.1746 55.9089 32.4025L53.6591 34.0856L55.341 36.3363ZM52.9145 33.0892L55.1175 31.4412C55.633 31.0555 55.9594 30.6529 56.0966 30.2335C56.228 29.8062 56.1447 29.3934 55.8469 28.9948C55.5432 28.5884 55.1826 28.4074 54.7651 28.4517C54.3476 28.496 53.9162 28.6847 53.471 29.0178L51.1626 30.7447L52.9145 33.0892Z" fill="#FAFAFA"/>
<path d="M34.5085 47.9911L35.4482 46.9469L40.8733 51.8348L39.9335 52.8791L34.5085 47.9911ZM37.1995 44.7823C37.4736 44.4777 37.7651 44.2413 38.0739 44.0732C38.3828 43.905 38.7025 43.8122 39.0331 43.7949C39.3564 43.7711 39.6874 43.8263 40.0259 43.9606C40.3637 44.0811 40.692 44.285 41.0109 44.5723L44.5443 47.7559L43.6143 48.7892L40.3093 45.8114C39.8816 45.4261 39.4681 45.2439 39.0686 45.2648C38.6685 45.272 38.2791 45.4858 37.9006 45.9064C37.6069 46.2327 37.4155 46.5986 37.3262 47.0041C37.2369 47.4095 37.2408 47.8135 37.3379 48.2161C37.4342 48.6049 37.6219 48.9579 37.9009 49.2749L37.2931 48.7471C37.0359 48.4496 36.8362 48.1318 36.6942 47.7938C36.5587 47.4485 36.482 47.1035 36.4639 46.759C36.4452 46.4007 36.4996 46.0558 36.6273 45.7243C36.7477 45.3864 36.9384 45.0723 37.1995 44.7823Z" fill="#FAFAFA"/>
<path d="M27.8126 51.6355L29.0246 52.5316L27.99 53.9324L26.778 53.0364L27.8126 51.6355ZM29.3064 54.6872L30.1322 53.5689L36.004 57.9101L35.1781 59.0284L29.3064 54.6872Z" fill="#FAFAFA"/>
<path d="M25.0748 70.6403L25.6789 69.4535C26.0695 69.7402 26.3678 70.1003 26.574 70.5338C26.7802 70.9674 26.8749 71.4482 26.8579 71.9761C26.841 72.504 26.6864 73.0548 26.3943 73.6286C26.0491 74.3068 25.5981 74.8379 25.0413 75.2221C24.4844 75.6062 23.8765 75.822 23.2174 75.8694C22.5584 75.9167 21.8942 75.7698 21.2249 75.4287C20.547 75.0832 20.0311 74.6342 19.6775 74.0817C19.3151 73.5247 19.1233 72.9123 19.102 72.2445C19.0807 71.5766 19.2405 70.908 19.5813 70.2385C19.9398 69.5343 20.3798 69.014 20.9014 68.6776C21.423 68.3412 22.0151 68.1995 22.6778 68.2525C23.3362 68.2924 24.0585 68.5401 24.8447 68.9955L22.1294 74.3294C22.5427 74.4853 22.9501 74.5451 23.3517 74.5089C23.7578 74.4639 24.1296 74.3249 24.4672 74.0918C24.8092 73.8501 25.0886 73.5162 25.3055 73.0902C25.5489 72.612 25.6439 72.1567 25.5903 71.7243C25.5368 71.2918 25.365 70.9305 25.0748 70.6403ZM20.6571 70.7704C20.3694 71.3355 20.2825 71.8825 20.3964 72.4114C20.5016 72.9359 20.771 73.3852 21.2044 73.7594L23.2426 69.7558C22.6947 69.5203 22.1931 69.5056 21.7379 69.7116C21.2741 69.9132 20.9138 70.2661 20.6571 70.7704Z" fill="#FAFAFA"/>
<path d="M20.723 86.7355C20.5065 87.3315 20.1587 87.8175 19.6796 88.1935C19.2005 88.5694 18.6435 88.8029 18.0085 88.8937C17.3676 88.9721 16.6988 88.8846 16.002 88.6312C15.3052 88.3778 14.7408 88.0169 14.309 87.5484C13.868 87.0766 13.5828 86.5473 13.4535 85.9604C13.3149 85.3703 13.3589 84.7634 13.5854 84.1399C13.7819 83.5989 14.0368 83.1829 14.3501 82.892C14.6634 82.601 15.0217 82.4147 15.425 82.333C15.8284 82.2513 16.2605 82.2475 16.7214 82.3217C17.1856 82.3867 17.6652 82.5093 18.1603 82.6893C18.5271 82.8227 18.9001 83.0102 19.2794 83.2519C19.6586 83.4937 19.995 83.7821 20.2885 84.1172C20.5819 84.4523 20.7783 84.8403 20.8776 85.2813C20.9677 85.7189 20.9162 86.2036 20.723 86.7355ZM19.7165 85.949C19.893 85.463 19.9358 85.0166 19.8448 84.6098C19.748 84.1906 19.5462 83.8317 19.2394 83.5333C18.9327 83.2349 18.5546 83.004 18.1054 82.8406C17.6195 82.6639 17.1615 82.596 16.7315 82.6368C16.3048 82.6685 15.929 82.8173 15.604 83.0832C15.2824 83.34 15.035 83.7068 14.8618 84.1836C14.602 84.8988 14.6297 85.5369 14.9449 86.0979C15.2634 86.6498 15.7756 87.0541 16.4816 87.3108C16.9584 87.4842 17.4151 87.5412 17.8518 87.482C18.2793 87.4195 18.6584 87.2615 18.9892 87.0081C19.3142 86.7422 19.5566 86.3892 19.7165 85.949ZM11.9167 80.5901L12.3963 79.2696L22.0094 82.7655L21.5698 83.9758C21.3581 83.93 21.1005 83.8675 20.7971 83.7883C20.4971 83.7 20.2416 83.6174 20.0308 83.5408L11.9167 80.5901Z" fill="#FAFAFA"/>
<path d="M17.007 99.6763C16.8687 100.285 16.5852 100.806 16.1567 101.239C15.7282 101.672 15.2046 101.973 14.5858 102.142C13.9576 102.309 13.2819 102.311 12.559 102.146C11.836 101.982 11.2321 101.689 10.7474 101.269C10.2554 100.837 9.91181 100.323 9.7168 99.7286C9.51227 99.1318 9.48351 98.5099 9.63052 97.863C9.79267 97.1495 10.0845 96.6356 10.5061 96.3213C10.9299 95.9975 11.4397 95.8234 12.0355 95.7988C12.6335 95.7648 13.275 95.8257 13.9599 95.9815C14.3404 96.0681 14.7339 96.2076 15.1403 96.4002C15.5468 96.5927 15.9165 96.8369 16.2494 97.1327C16.5824 97.4286 16.8256 97.7891 16.9791 98.2142C17.1231 98.6372 17.1324 99.1245 17.007 99.6763ZM15.9102 99.0216C16.0248 98.5174 16.0116 98.0691 15.8707 97.6769C15.7223 97.273 15.4774 96.9421 15.1358 96.6843C14.7942 96.4265 14.3903 96.2445 13.9242 96.1385C13.42 96.0238 12.9572 96.0135 12.5356 96.1077C12.1161 96.1924 11.7618 96.3869 11.4725 96.6913C11.1854 96.9862 10.9857 97.3809 10.8732 97.8756C10.7046 98.6177 10.8116 99.2473 11.1943 99.7646C11.5791 100.272 12.1378 100.61 12.8703 100.776C13.3649 100.889 13.8252 100.888 14.2511 100.775C14.6675 100.66 15.024 100.456 15.3207 100.163C15.6099 99.8587 15.8065 99.4782 15.9102 99.0216ZM10.3569 95.3269L10.6683 93.957L17.7885 95.5769L17.5032 96.8327C17.5032 96.8327 17.4154 96.8227 17.2398 96.8028C17.0548 96.7807 16.8364 96.751 16.5848 96.7138C16.3331 96.6765 16.1122 96.6363 15.9219 96.593L10.3569 95.3269Z" fill="#FAFAFA"/>
<path d="M13.8439 114.507L13.7977 115.106L5.47632 109.78L5.58458 108.379L15.0536 109.112L14.9453 110.512L7.67943 109.95L7.77606 109.649L14.6656 114.131L14.5517 115.604L7.07005 118.974L7.02078 118.661L14.2721 119.223L14.1638 120.623L4.69482 119.891L4.80308 118.49L13.8439 114.507Z" fill="#FAFAFA"/>
<path d="M14.4781 142.523L15.9601 142.248L16.2776 143.96L14.7957 144.235L14.4781 142.523Z" fill="#FAFAFA"/>
<path d="M15.604 151.722L15.2369 150.442C15.7179 150.385 16.1816 150.445 16.628 150.622C17.0744 150.798 17.4713 151.085 17.8187 151.482C18.1662 151.88 18.4286 152.388 18.6061 153.007C18.8159 153.739 18.8481 154.435 18.7027 155.096C18.5573 155.757 18.2597 156.329 17.81 156.814C17.3602 157.298 16.7743 157.644 16.0523 157.851C15.3209 158.061 14.6375 158.085 14.0022 157.922C13.3576 157.762 12.7998 157.445 12.329 156.971C11.8582 156.497 11.5193 155.9 11.3122 155.177C11.0944 154.418 11.0615 153.737 11.2137 153.135C11.3658 152.533 11.7023 152.026 12.2232 151.612C12.7319 151.192 13.4291 150.88 14.3146 150.677L15.9645 156.43C16.373 156.262 16.7118 156.028 16.9808 155.727C17.2471 155.417 17.4243 155.062 17.5124 154.661C17.5977 154.251 17.5745 153.816 17.4427 153.356C17.2948 152.841 17.0539 152.443 16.72 152.163C16.386 151.884 16.0141 151.737 15.604 151.722ZM12.4616 154.832C12.6364 155.442 12.9457 155.901 13.3895 156.21C13.824 156.522 14.3273 156.667 14.8994 156.644L13.661 152.326C13.0998 152.528 12.7229 152.859 12.5304 153.32C12.3285 153.784 12.3056 154.288 12.4616 154.832Z" fill="#FAFAFA"/>
<path d="M18.8255 163.17C19.4055 162.989 19.9667 162.964 20.509 163.096C21.0384 163.222 21.5133 163.482 21.9336 163.877C22.3538 164.271 22.6889 164.765 22.9388 165.359C23.2153 166.015 23.3342 166.674 23.2955 167.336C23.2478 168.002 23.0334 168.612 22.6521 169.164C22.2581 169.711 21.697 170.139 20.9689 170.446C20.2317 170.756 19.5343 170.86 18.8766 170.756C18.2061 170.647 17.616 170.377 17.1064 169.946C16.5967 169.515 16.2036 168.972 15.9272 168.315C15.6772 167.722 15.5598 167.141 15.5748 166.574C15.5898 166.006 15.7352 165.485 16.011 165.008C16.2778 164.536 16.6766 164.151 17.2074 163.853L17.7016 165.026C17.2806 165.384 17.014 165.819 16.902 166.332C16.7772 166.84 16.8208 167.346 17.0329 167.849C17.2071 168.263 17.4643 168.609 17.8045 168.889C18.141 169.16 18.5345 169.328 18.9849 169.392C19.4226 169.451 19.9021 169.371 20.4235 169.151C20.9269 168.939 21.3149 168.653 21.5873 168.295C21.847 167.931 21.9974 167.534 22.0385 167.104C22.0706 166.678 21.9976 166.253 21.8197 165.831C21.5773 165.255 21.241 164.846 20.8109 164.604C20.3807 164.362 19.8818 164.271 19.314 164.33L18.8255 163.17Z" fill="#FAFAFA"/>
<path d="M24.0464 183.959L23.3493 182.74L29.6872 179.113L30.3844 180.333L24.0464 183.959ZM21.8425 180.399C21.6392 180.043 21.506 179.692 21.443 179.346C21.38 179 21.392 178.667 21.4791 178.347C21.5576 178.033 21.7136 177.735 21.947 177.456C22.1672 177.172 22.4635 176.924 22.8361 176.711L26.964 174.349L27.6539 175.556L23.7927 177.765C23.2931 178.051 22.9907 178.387 22.8856 178.773C22.7671 179.156 22.8483 179.593 23.1291 180.084C23.3469 180.465 23.6343 180.761 23.9913 180.973C24.3482 181.185 24.733 181.307 25.1455 181.341C25.5448 181.371 25.9385 181.303 26.3268 181.137L25.6355 181.55C25.2726 181.701 24.9085 181.791 24.5431 181.821C24.173 181.841 23.8215 181.806 23.4888 181.716C23.1427 181.622 22.8324 181.462 22.5577 181.237C22.2746 181.017 22.0362 180.737 21.8425 180.399Z" fill="#FAFAFA"/>
<path d="M32.5418 187.824L31.7473 186.755C32.1774 186.533 32.6323 186.425 33.1122 186.433C33.592 186.441 34.0645 186.569 34.5297 186.819C34.9949 187.069 35.4196 187.452 35.8037 187.969C36.2577 188.579 36.533 189.22 36.6298 189.889C36.7265 190.559 36.6498 191.2 36.3995 191.812C36.1493 192.424 35.7228 192.954 35.1202 193.402C34.5097 193.857 33.8786 194.12 33.2268 194.191C32.5671 194.269 31.9335 194.169 31.3261 193.891C30.7186 193.613 30.1908 193.173 29.7426 192.57C29.2712 191.936 29.0007 191.31 28.931 190.693C28.8614 190.076 28.9974 189.483 29.3392 188.912C29.6673 188.34 30.2098 187.802 30.9668 187.3L34.5374 192.103C34.8605 191.802 35.095 191.463 35.2408 191.087C35.3809 190.703 35.4215 190.308 35.3627 189.902C35.2981 189.488 35.1232 189.089 34.838 188.706C34.5179 188.275 34.1524 187.988 33.7414 187.843C33.3303 187.699 32.9305 187.693 32.5418 187.824ZM30.6966 191.842C31.0749 192.351 31.5261 192.672 32.0503 192.805C32.5667 192.943 33.0887 192.902 33.6162 192.679L30.9361 189.074C30.482 189.46 30.2461 189.903 30.2284 190.403C30.203 190.908 30.359 191.388 30.6966 191.842Z" fill="#FAFAFA"/>
<path d="M34.1801 202.573L35.298 201.562L36.4654 202.854L35.3475 203.865L34.1801 202.573ZM37.4655 201.713L36.5336 200.681L41.9494 195.783L42.8813 196.814L37.4655 201.713Z" fill="#FAFAFA"/>
<path d="M44.707 208.975L43.6849 208.011L48.6919 202.696L49.714 203.66L44.707 208.975ZM42.7386 205.409C43.1076 205.757 43.5038 205.97 43.9269 206.047C44.343 206.117 44.7461 206.102 45.1364 206.001C45.5196 205.893 45.8431 205.748 46.1068 205.568L45.5455 206.185C45.4715 206.25 45.3501 206.343 45.1812 206.465C44.9986 206.588 44.7743 206.705 44.5086 206.816C44.2428 206.928 43.9586 207.002 43.6561 207.038C43.3469 207.082 43.0324 207.06 42.7124 206.973C42.3925 206.886 42.0834 206.702 41.7853 206.421L42.7386 205.409Z" fill="#FAFAFA"/>
<path d="M53.808 210.289L52.7502 209.48C53.1023 209.148 53.5101 208.919 53.9736 208.795C54.437 208.67 54.9267 208.664 55.4427 208.776C55.9586 208.888 56.4723 209.14 56.9838 209.531C57.5883 209.993 58.0292 210.533 58.3065 211.15C58.5838 211.767 58.6863 212.405 58.6141 213.062C58.5419 213.719 58.2778 214.346 57.8218 214.943C57.3599 215.548 56.8255 215.974 56.2185 216.222C55.6056 216.478 54.969 216.556 54.3086 216.457C53.6482 216.357 53.0196 216.079 52.4229 215.623C51.7952 215.143 51.3629 214.616 51.1262 214.041C50.8894 213.467 50.8569 212.859 51.0285 212.217C51.1864 211.576 51.5601 210.91 52.1495 210.219L56.904 213.854C57.1317 213.476 57.264 213.086 57.3008 212.684C57.3298 212.276 57.2601 211.885 57.0918 211.511C56.9158 211.131 56.6379 210.795 56.2582 210.505C55.8319 210.179 55.4014 210.003 54.9666 209.978C54.5318 209.952 54.1456 210.056 53.808 210.289ZM53.1396 214.66C53.6434 215.045 54.1655 215.23 54.706 215.213C55.2406 215.204 55.7309 215.02 56.1769 214.661L52.6082 211.932C52.2779 212.429 52.1731 212.92 52.2936 213.405C52.4081 213.898 52.6902 214.316 53.1396 214.66Z" fill="#FAFAFA"/>
<path d="M67.637 216.753C68.1248 217.039 68.4709 217.384 68.6754 217.787C68.8799 218.191 68.9759 218.615 68.9633 219.06C68.9507 219.505 68.8754 219.942 68.7372 220.37C68.599 220.798 68.4311 221.18 68.2334 221.517C67.9667 221.971 67.6794 222.374 67.3715 222.725C67.0552 223.07 66.7156 223.34 66.3528 223.535C65.9899 223.729 65.5951 223.813 65.1683 223.789C64.7415 223.764 64.28 223.606 63.7838 223.314C63.2371 222.993 62.8291 222.561 62.5597 222.018C62.2854 221.483 62.1636 220.891 62.1944 220.241C62.2167 219.587 62.4131 218.944 62.7836 218.313C63.164 217.665 63.6345 217.172 64.1951 216.834C64.7507 216.504 65.333 216.332 65.9417 216.316C66.5421 216.296 67.1072 216.441 67.637 216.753ZM67.3552 218.013C66.9515 217.775 66.5397 217.658 66.1199 217.66C65.6951 217.671 65.3022 217.79 64.9414 218.02C64.5671 218.252 64.2516 218.587 63.9947 219.025C63.6143 219.673 63.4814 220.313 63.5961 220.946C63.7023 221.575 64.0834 222.082 64.7394 222.467C65.1347 222.7 65.5423 222.815 65.9621 222.813C66.3736 222.806 66.7664 222.686 67.1406 222.453C67.5148 222.22 67.8329 221.881 68.0947 221.435C68.3417 221.015 68.4883 220.591 68.5345 220.166C68.5674 219.744 68.4917 219.343 68.3075 218.963C68.1184 218.592 67.8009 218.275 67.3552 218.013ZM67.4532 225.302L66.2926 224.62L67.0795 223.164L71.4218 215.769L72.6329 216.481L67.4532 225.302Z" fill="#FAFAFA"/>
<path d="M73.4752 228.367L77.9423 225.959L81.5042 223.905L83.0733 224.591L78.344 227.124L75.0308 229.047L73.4752 228.367ZM80.1538 231.284L78.5579 230.587L77.5854 226.777L76.2471 221.61L77.8028 222.289L78.7931 226.314L80.1538 231.284Z" fill="#FAFAFA"/>
<path d="M88.7171 229.102L87.4428 228.716C87.6561 228.281 87.9579 227.924 88.3484 227.645C88.7388 227.365 89.1952 227.188 89.7178 227.112C90.2403 227.036 90.8096 227.091 91.4258 227.278C92.154 227.499 92.7561 227.85 93.2322 228.331C93.7083 228.812 94.0277 229.373 94.1903 230.013C94.353 230.654 94.3254 231.334 94.1075 232.053C93.8868 232.781 93.5357 233.368 93.0542 233.813C92.5699 234.267 92.0009 234.564 91.3474 234.702C90.6939 234.84 90.0077 234.8 89.2889 234.582C88.5327 234.353 87.9432 234.011 87.5202 233.556C87.0973 233.102 86.8536 232.543 86.7891 231.882C86.7125 231.226 86.8291 230.472 87.1389 229.617L92.8663 231.355C92.947 230.921 92.9341 230.509 92.8277 230.12C92.712 229.728 92.5098 229.386 92.221 229.095C91.9228 228.8 91.545 228.584 91.0875 228.445C90.5741 228.289 90.1093 228.276 89.6931 228.404C89.277 228.533 88.9516 228.766 88.7171 229.102ZM89.6229 233.43C90.2297 233.614 90.7834 233.603 91.2838 233.398C91.7815 233.203 92.1763 232.858 92.4682 232.366L88.1692 231.062C88.0339 231.642 88.1077 232.139 88.3906 232.551C88.6707 232.972 89.0814 233.265 89.6229 233.43Z" fill="#FAFAFA"/>
<path d="M111.681 238.897L106.93 238.325L107.073 237.134L111.824 237.705L111.681 238.897ZM107.36 241.369L106.431 241.257L106.584 239.979L107.369 240.073C107.619 240.113 107.851 240.106 108.064 240.053C108.275 240.01 108.45 239.903 108.589 239.733C108.717 239.562 108.803 239.302 108.845 238.953L109.758 231.355L111.138 231.521L110.216 239.192C110.146 239.773 109.987 240.236 109.74 240.579C109.483 240.922 109.15 241.152 108.743 241.27C108.335 241.398 107.874 241.431 107.36 241.369Z" fill="#FAFAFA"/>
<path d="M121.818 232.017C122.53 232.026 123.182 232.185 123.773 232.495C124.364 232.806 124.832 233.246 125.176 233.816C125.52 234.386 125.686 235.067 125.676 235.857C125.666 236.657 125.482 237.337 125.123 237.898C124.765 238.47 124.286 238.902 123.687 239.197C123.088 239.492 122.432 239.635 121.72 239.626C121.008 239.616 120.361 239.457 119.78 239.147C119.199 238.837 118.736 238.392 118.392 237.812C118.048 237.242 117.881 236.557 117.892 235.757C117.902 234.966 118.086 234.291 118.445 233.729C118.803 233.168 119.277 232.74 119.866 232.445C120.455 232.15 121.106 232.007 121.818 232.017ZM121.802 233.231C121.363 233.226 120.957 233.318 120.584 233.508C120.201 233.708 119.895 233.997 119.666 234.374C119.427 234.762 119.303 235.228 119.296 235.775C119.289 236.331 119.4 236.805 119.629 237.199C119.849 237.592 120.147 237.893 120.525 238.103C120.893 238.312 121.297 238.42 121.736 238.426C122.175 238.431 122.586 238.334 122.969 238.134C123.352 237.944 123.663 237.655 123.902 237.268C124.141 236.881 124.264 236.404 124.272 235.839C124.279 235.292 124.172 234.823 123.953 234.43C123.724 234.046 123.42 233.75 123.042 233.54C122.665 233.34 122.251 233.237 121.802 233.231Z" fill="#FAFAFA"/>
<path d="M144.988 232.44L143.719 232.658C143.605 232.282 143.377 231.995 143.036 231.796C142.696 231.607 142.257 231.559 141.719 231.652C141.373 231.712 141.11 231.797 140.931 231.907C140.754 232.026 140.639 232.165 140.587 232.322C140.525 232.482 140.51 232.648 140.539 232.821C140.577 233.042 140.664 233.2 140.799 233.296C140.936 233.401 141.117 233.473 141.342 233.514C141.568 233.564 141.832 233.603 142.134 233.63C142.466 233.662 142.801 233.708 143.138 233.768C143.475 233.829 143.792 233.918 144.09 234.035C144.377 234.154 144.624 234.319 144.828 234.531C145.025 234.755 145.154 235.044 145.216 235.4C145.267 235.698 145.253 235.988 145.172 236.269C145.082 236.551 144.933 236.805 144.724 237.029C144.507 237.264 144.244 237.458 143.934 237.611C143.625 237.773 143.273 237.888 142.879 237.956C142.331 238.051 141.852 238.029 141.443 237.892C141.035 237.764 140.704 237.539 140.45 237.217C140.187 236.896 140.011 236.505 139.922 236.046L141.133 235.837C141.27 236.229 141.46 236.498 141.703 236.644C141.948 236.8 142.281 236.842 142.704 236.769C143.118 236.697 143.421 236.561 143.614 236.359C143.807 236.158 143.879 235.917 143.831 235.639C143.795 235.427 143.688 235.267 143.511 235.159C143.336 235.061 143.11 234.986 142.834 234.935C142.558 234.883 142.247 234.833 141.902 234.783C141.576 234.731 141.264 234.671 140.965 234.603C140.659 234.547 140.381 234.462 140.134 234.346C139.878 234.241 139.667 234.08 139.501 233.861C139.327 233.654 139.21 233.377 139.15 233.031C139.077 232.608 139.119 232.219 139.276 231.865C139.434 231.521 139.701 231.228 140.075 230.985C140.439 230.744 140.905 230.575 141.472 230.477C141.991 230.387 142.444 230.374 142.831 230.436C143.208 230.499 143.539 230.61 143.824 230.769C144.099 230.93 144.323 231.109 144.496 231.307C144.66 231.516 144.785 231.722 144.87 231.925C144.944 232.13 144.984 232.302 144.988 232.44Z" fill="#FAFAFA"/>
<path d="M155.486 234.922L154.131 235.293L152.205 228.25L153.56 227.879L155.486 234.922ZM151.418 234.747C151.907 234.613 152.295 234.385 152.581 234.064C152.858 233.745 153.055 233.393 153.172 233.007C153.28 232.624 153.325 232.272 153.309 231.953L153.543 232.754C153.559 232.851 153.575 233.003 153.592 233.211C153.601 233.431 153.584 233.683 153.541 233.968C153.498 234.253 153.413 234.534 153.286 234.812C153.162 235.098 152.98 235.356 152.739 235.584C152.498 235.812 152.18 235.98 151.784 236.088L151.418 234.747Z" fill="#FAFAFA"/>
<path d="M163.388 224.338C163.969 224.11 164.559 224.052 165.158 224.163C165.757 224.275 166.3 224.539 166.788 224.956C167.279 225.381 167.66 225.94 167.93 226.63C168.2 227.321 168.297 227.985 168.221 228.622C168.14 229.272 167.908 229.844 167.526 230.34C167.147 230.844 166.649 231.217 166.031 231.459C165.35 231.726 164.761 231.773 164.264 231.601C163.758 231.432 163.327 231.108 162.973 230.629C162.608 230.154 162.299 229.589 162.043 228.935C161.901 228.571 161.795 228.167 161.726 227.723C161.657 227.278 161.651 226.835 161.709 226.394C161.767 225.952 161.929 225.548 162.194 225.182C162.463 224.826 162.861 224.544 163.388 224.338ZM163.462 225.613C162.981 225.801 162.617 226.064 162.372 226.401C162.121 226.751 161.985 227.139 161.964 227.567C161.942 227.994 162.019 228.431 162.193 228.876C162.381 229.357 162.632 229.746 162.947 230.042C163.253 230.341 163.613 230.525 164.027 230.594C164.432 230.665 164.871 230.609 165.343 230.424C166.052 230.147 166.513 229.704 166.726 229.097C166.93 228.493 166.895 227.842 166.621 227.142C166.437 226.67 166.178 226.289 165.845 226C165.516 225.721 165.147 225.54 164.738 225.459C164.324 225.391 163.898 225.442 163.462 225.613ZM163.525 232.283L162.217 232.795L159.558 225.994L160.757 225.525C160.757 225.525 160.798 225.603 160.88 225.76C160.966 225.925 161.064 226.122 161.174 226.352C161.285 226.581 161.376 226.786 161.447 226.968L163.525 232.283Z" fill="#FAFAFA"/>
<path d="M173.967 222.318L172.795 222.95C172.637 222.492 172.597 222.026 172.674 221.552C172.751 221.078 172.947 220.629 173.261 220.205C173.576 219.78 174.016 219.415 174.583 219.11C175.253 218.749 175.926 218.569 176.602 218.57C177.279 218.571 177.902 218.74 178.47 219.076C179.039 219.412 179.502 219.911 179.858 220.572C180.219 221.242 180.387 221.905 180.364 222.56C180.344 223.225 180.154 223.837 179.791 224.399C179.428 224.96 178.916 225.419 178.255 225.775C177.56 226.15 176.902 226.327 176.281 226.307C175.661 226.287 175.094 226.066 174.579 225.646C174.06 225.238 173.607 224.623 173.22 223.801L178.488 220.961C178.237 220.598 177.936 220.317 177.586 220.118C177.226 219.924 176.841 219.826 176.431 219.826C176.012 219.83 175.593 219.946 175.172 220.172C174.699 220.427 174.362 220.747 174.16 221.133C173.958 221.519 173.894 221.914 173.967 222.318ZM177.673 224.726C178.232 224.425 178.614 224.024 178.822 223.525C179.034 223.034 179.068 222.511 178.925 221.956L174.97 224.088C175.287 224.594 175.691 224.891 176.182 224.981C176.678 225.079 177.175 224.994 177.673 224.726Z" fill="#FAFAFA"/>
<path d="M192.917 216.311L191.695 217.168L185.387 213.027L186.214 212.091L192.917 216.311ZM186.816 220.584L184.537 209.693L185.747 208.845L186.474 213.177L188.027 219.736L186.816 220.584Z" fill="#FAFAFA"/>
<path d="M203.193 200.378L203.694 197.948L203.997 198.119L200.758 201.461L199.886 200.615L204.164 196.202L205.035 197.048C204.862 197.872 204.693 198.592 204.531 199.209C204.375 199.832 204.255 200.369 204.172 200.819C204.083 201.275 204.061 201.669 204.108 202C204.154 202.33 204.3 202.614 204.545 202.852C204.727 203.029 204.929 203.143 205.15 203.195C205.379 203.253 205.616 203.233 205.863 203.132C206.117 203.039 206.376 202.855 206.641 202.582C206.981 202.232 207.171 201.846 207.213 201.424C207.262 201.009 207.136 200.649 206.834 200.343L207.72 199.429C208.112 199.754 208.363 200.147 208.473 200.608C208.584 201.068 208.56 201.548 208.402 202.048C208.244 202.547 207.958 203.01 207.544 203.438C207.211 203.781 206.867 204.045 206.511 204.23C206.155 204.415 205.805 204.524 205.461 204.557C205.117 204.603 204.788 204.57 204.476 204.458C204.165 204.359 203.886 204.191 203.641 203.953C203.431 203.749 203.272 203.527 203.165 203.287C203.058 203.047 202.992 202.779 202.967 202.483C202.942 202.2 202.951 201.883 202.993 201.53C203.03 201.185 203.096 200.801 203.193 200.378Z" fill="#FAFAFA"/>
<path d="M215.08 192.358L216.071 193.134L214.088 195.67L208.337 191.17L209.202 190.064L213.962 193.788L215.08 192.358Z" fill="#FAFAFA"/>
<path d="M221.002 180.793L217.954 185.635L216.988 185.026L220.036 180.184L221.002 180.793ZM220.945 184.839L216.414 181.983L217.045 180.98L221.577 183.836L220.945 184.839Z" fill="#FAFAFA"/>
</svg>
