<svg width="78" height="65" viewBox="0 0 78 65" fill="none" xmlns="http://www.w3.org/2000/svg">
<g clip-path="url(#clip0_132_95)">
<path d="M70.9673 3.42972H8.10004L8.09362 3.43614H6.78936C6.18189 3.43614 5.58643 3.6053 5.06969 3.92466C4.55295 4.24402 4.13535 4.70097 3.86368 5.2443C3.59202 5.78763 3.47702 6.39588 3.53157 7.00089C3.58612 7.60578 3.80799 8.18353 4.17233 8.66944C4.17226 8.66934 4.1724 8.66954 4.17233 8.66944L42.6877 60.0105C42.688 60.0109 42.6883 60.0113 42.6886 60.0116C44.5866 62.5315 48.5787 61.1829 48.5787 58.0521V32.7134V32.7105C48.5801 31.2428 48.9191 29.795 49.5695 28.4793C50.2195 27.1644 51.163 26.0166 52.3272 25.1245C52.3271 25.1245 52.3273 25.1244 52.3272 25.1245C52.3279 25.1239 52.3288 25.1233 52.3295 25.1227L72.9602 9.29344L72.9614 9.2925C75.4366 7.39528 74.0985 3.42972 70.9673 3.42972Z" fill="#F6B0FF"/>
<path d="M52.3272 25.1245C51.163 26.0166 50.2195 27.1644 49.5695 28.4793C48.9191 29.795 48.5801 31.2428 48.5787 32.7105V32.7134V58.0521C48.5787 61.1829 44.5866 62.5315 42.6886 60.0116C42.6883 60.0113 42.688 60.0109 42.6877 60.0105L4.17233 8.66944C3.80799 8.18353 3.58612 7.60578 3.53157 7.00089C3.47702 6.39588 3.59202 5.78763 3.86368 5.2443C4.13535 4.70097 4.55295 4.24402 5.06969 3.92466C5.58643 3.6053 6.18189 3.43614 6.78936 3.43614H8.09362L8.10004 3.42972H70.9673C74.0985 3.42972 75.4366 7.39528 72.9614 9.2925L72.9602 9.29344L52.3295 25.1227C52.3288 25.1233 52.3279 25.1239 52.3272 25.1245ZM4.17233 8.66944C4.1724 8.66954 4.17226 8.66934 4.17233 8.66944ZM52.3272 25.1245C52.3273 25.1244 52.3271 25.1245 52.3272 25.1245Z" stroke="#270F52" stroke-width="6.29745"/>
</g>
<defs>
<clipPath id="clip0_132_95">
<rect width="78" height="65" fill="white"/>
</clipPath>
</defs>
</svg>
