<svg width="247" height="247" viewBox="0 0 247 247" fill="none" xmlns="http://www.w3.org/2000/svg">
<g clip-path="url(#clip0_380_535)">
<path fill-rule="evenodd" clip-rule="evenodd" d="M157.344 132.622L126.848 102.126L135.457 93.5173C136.969 92.0052 139.42 92.0052 140.933 93.5173L165.953 118.537C167.465 120.049 167.465 122.501 165.953 124.013L157.344 132.622ZM125.787 101.065L125.257 101.596L102.843 107.904C100.756 108.492 99.2273 110.276 98.9658 112.428L92.5007 165.63L92.4611 165.957L92.3143 167.164L93.5219 167.017L93.848 166.978L147.044 160.506C149.196 160.245 150.98 158.715 151.567 156.629L157.874 134.213L158.404 133.682L167.013 125.073C169.111 122.976 169.111 119.574 167.013 117.476L141.993 92.4566C139.895 90.3587 136.494 90.3587 134.396 92.4566L125.787 101.065ZM100.455 112.608L94.1811 164.237L117.829 140.589C114.795 137.246 114.891 132.074 118.118 128.847C121.444 125.52 126.837 125.52 130.164 128.847L130.628 129.311C133.954 132.637 133.954 138.03 130.628 141.357C127.402 144.582 122.233 144.68 118.89 141.649L95.2422 165.297L146.863 159.017C148.414 158.829 149.7 157.726 150.123 156.223L156.425 133.824L125.645 103.045L103.25 109.348C101.746 109.772 100.643 111.057 100.455 112.608ZM119.952 140.587C122.708 143.033 126.928 142.936 129.567 140.296C132.308 137.556 132.308 133.112 129.567 130.372L129.103 129.907C126.362 127.167 121.919 127.167 119.179 129.907C116.538 132.548 116.442 136.771 118.891 139.527L118.921 139.497L119.982 140.557L119.952 140.587Z" fill="#FAFAFA"/>
<path d="M122.721 76.5813L122.72 76.5814L113.412 80.0055L113.412 80.0056C113.032 80.1457 112.686 80.3666 112.4 80.6531C112.113 80.9396 111.893 81.2848 111.752 81.665L111.752 81.6653L108.328 90.9734L108.328 90.9738C108.324 90.9847 108.317 90.994 108.307 91.0007C108.298 91.0073 108.287 91.0108 108.275 91.0108C108.264 91.0108 108.252 91.0073 108.243 91.0007C108.233 90.994 108.226 90.9847 108.222 90.9738L108.222 90.9734L104.798 81.6653L104.798 81.665C104.658 81.2848 104.437 80.9396 104.15 80.6531C103.864 80.3666 103.519 80.1457 103.138 80.0056L103.138 80.0055L93.83 76.5814L93.8296 76.5813C93.8187 76.5773 93.8094 76.5701 93.8027 76.5606C93.7961 76.5511 93.7926 76.5398 93.7926 76.5283C93.7926 76.5167 93.7961 76.5055 93.8027 76.496C93.8094 76.4865 93.8187 76.4793 93.8296 76.4753L93.83 76.4751L103.138 73.051L103.138 73.0509C103.519 72.9109 103.864 72.69 104.15 72.4035C104.437 72.117 104.658 71.7718 104.798 71.3916L104.798 71.3913L108.222 62.0832L108.222 62.0827C108.226 62.0719 108.233 62.0625 108.243 62.0559C108.252 62.0493 108.264 62.0458 108.275 62.0458C108.287 62.0458 108.298 62.0493 108.307 62.0559C108.317 62.0625 108.324 62.0719 108.328 62.0827L108.328 62.0832L111.752 71.3913L111.752 71.3916C111.893 71.7718 112.113 72.117 112.4 72.4035C112.686 72.69 113.032 72.9109 113.412 73.0509L113.412 73.051L122.72 76.4751L122.721 76.4753C122.731 76.4793 122.741 76.4865 122.747 76.496C122.754 76.5055 122.758 76.5167 122.758 76.5283C122.758 76.5398 122.754 76.5511 122.747 76.5606C122.741 76.5701 122.731 76.5773 122.721 76.5813Z" stroke="#FAFAFA" stroke-width="1.3"/>
<path d="M80.3032 103.397L80.3029 103.397C80.0774 103.48 79.8727 103.611 79.7027 103.781C79.5328 103.951 79.4018 104.155 79.3188 104.381L79.3187 104.381L78.0075 107.945L76.6963 104.381L76.6962 104.381C76.6131 104.155 76.4821 103.951 76.3122 103.781C76.1423 103.611 75.9376 103.48 75.7121 103.397L75.7118 103.397L72.1475 102.085L75.7118 100.774L75.7121 100.774C75.9376 100.691 76.1423 100.56 76.3122 100.39C76.4821 100.22 76.6131 100.015 76.6962 99.79L76.6963 99.7897L78.0075 96.2254L79.3187 99.7897L79.3188 99.79C79.4018 100.015 79.5328 100.22 79.7027 100.39C79.8727 100.56 80.0774 100.691 80.3029 100.774L80.3032 100.774L83.8675 102.085L80.3032 103.397Z" stroke="#FAFAFA" stroke-width="1.3"/>
</g>
<defs>
<clipPath id="clip0_380_535">
<rect width="246" height="246" fill="white" transform="translate(0.0581055 0.116699)"/>
</clipPath>
</defs>
</svg>
