<svg width="24" height="25" viewBox="0 0 24 25" fill="none" xmlns="http://www.w3.org/2000/svg">
<path d="M11.1281 1.35319C11.2586 0.165541 12.9855 0.16554 13.1161 1.35319L13.6605 6.30576C13.7467 7.08999 14.6646 7.47021 15.2801 6.97663L19.167 3.85958C20.0992 3.1121 21.3203 4.33322 20.5728 5.26533L17.4557 9.15227C16.9622 9.76776 17.3424 10.6857 18.1266 10.7719L23.0792 11.3163C24.2668 11.4468 24.2668 13.1738 23.0792 13.3043L18.1266 13.8487C17.3424 13.9349 16.9622 14.8528 17.4557 15.4683L20.5728 19.3553C21.3203 20.2874 20.0991 21.5085 19.167 20.761L15.2801 17.644C14.6646 17.1504 13.7467 17.5306 13.6605 18.3148L13.1161 23.2674C12.9855 24.4551 11.2586 24.4551 11.1281 23.2674L10.5837 18.3148C10.4975 17.5306 9.57953 17.1504 8.96404 17.644L5.0771 20.761C4.14499 21.5085 2.92387 20.2874 3.67135 19.3553L6.7884 15.4683C7.28198 14.8528 6.90176 13.9349 6.11753 13.8487L1.16496 13.3043C-0.0226917 13.1738 -0.0226921 11.4468 1.16496 11.3163L6.11753 10.7719C6.90176 10.6857 7.28198 9.76776 6.7884 9.15227L3.67135 5.26533C2.92387 4.33322 4.14499 3.1121 5.07709 3.85958L8.96404 6.97663C9.57953 7.47021 10.4975 7.08999 10.5837 6.30576L11.1281 1.35319Z" fill="#5C59ED"/>
</svg>
