<svg width="40" height="40" viewBox="0 0 40 40" fill="none" xmlns="http://www.w3.org/2000/svg">
<g clip-path="url(#clip0_132_159)">
<mask id="mask0_132_159" style="mask-type:luminance" maskUnits="userSpaceOnUse" x="0" y="0" width="40" height="40">
<path d="M40 0H0V40H40V0Z" fill="white"/>
</mask>
<g mask="url(#mask0_132_159)">
<path d="M19.006 9.0429C19.1365 7.85525 20.8635 7.85525 20.994 9.0429L21.5384 13.9955C21.6246 14.7797 22.5425 15.1599 23.158 14.6663L27.045 11.5493C27.9771 10.8018 29.1982 12.0229 28.4507 12.955L25.3337 16.842C24.8401 17.4575 25.2203 18.3754 26.0045 18.4616L30.9571 19.006C32.1448 19.1365 32.1448 20.8635 30.9571 20.994L26.0045 21.5384C25.2203 21.6246 24.8401 22.5425 25.3337 23.158L28.4507 27.045C29.1982 27.9771 27.9771 29.1982 27.045 28.4507L23.158 25.3337C22.5425 24.8401 21.6246 25.2203 21.5384 26.0045L20.994 30.9571C20.8635 32.1448 19.1365 32.1448 19.006 30.9571L18.4616 26.0045C18.3754 25.2203 17.4575 24.8401 16.842 25.3337L12.955 28.4507C12.0229 29.1982 10.8018 27.9771 11.5493 27.045L14.6663 23.158C15.1599 22.5425 14.7797 21.6246 13.9955 21.5384L9.04288 20.994C7.85523 20.8635 7.85523 19.1365 9.04288 19.006L13.9955 18.4616C14.7797 18.3754 15.1599 17.4575 14.6663 16.842L11.5493 12.955C10.8018 12.0229 12.0229 10.8018 12.955 11.5493L16.842 14.6663C17.4575 15.1599 18.3754 14.7797 18.4616 13.9955L19.006 9.0429Z" fill="#F6B0FF"/>
</g>
</g>
<defs>
<clipPath id="clip0_132_159">
<rect width="40" height="40" fill="white"/>
</clipPath>
</defs>
</svg>
